# xmcd CD database file
#
# Track frame offsets:
#	150
#	15095
#	28615
#	42374
#	59036
#	72050
#	82842
#	95236
#	108540
#	127058
#	141150
#	153770
#
# Disc length: 2254 seconds
#
# Revision: 0
# Processed by: cddbd v1.5.2PL0 Copyright (c) Steve Scherf et al.
# Submitted via: CDex 1.51
#
DISCID=9b08cc0c
DTITLE=Chris Callaghan - the moment of thruth
DYEAR=2006
DGENRE=Country
TTITLE0=The moment of truth
TTITLE1=I like this girl
TTITLE2=Pure sweet love
TTITLE3=Battle at Beaconsfield
TTITLE4=How proud we are
TTITLE5=The answer
TTITLE6=I need your love
TTITLE7=One special night
TTITLE8=Unsung heroes
TTITLE9=Do you know what I mean
TTITLE10=Midnight in paradise
TTITLE11=Only the dream is real
EXTD=YEAR: 2006
EXTT0=
EXTT1=
EXTT2=
EXTT3=
EXTT4=
EXTT5=
EXTT6=
EXTT7=
EXTT8=
EXTT9=
EXTT10=
EXTT11=
PLAYORDER=
